<?xml version="1.0" encoding="UTF-8"?>
<svg id="Layer_1" data-name="Layer 1" xmlns="http://www.w3.org/2000/svg" viewBox="0 0 665.277072013217548 97.129216047148475">
  <defs>
    <style>
      .cls-1 {
        fill: #070000;
      }
    </style>
  </defs>
  <path class="cls-1" d="M29.523297660949538,30.175434294497791c0-3.768867600581871,1.844153776057283-7.839835382892488,4.945044308136858-10.92461390527933,2.735684979048528-2.735684979043072,7.697512630607889-5.995010273096341,15.728006794854082-5.995010273096341h.079217380995033c6.758316732279127.015440675955688,12.069237927187714,2.099260596189197,15.791112166161838,6.201781064151874,4.913491622486617,5.406921919318847,5.215591804213545,12.404233462038974,5.136374423234884,14.96335766820448h-9.557778416367c.047664695342974-.635753049120467.191330115103483-5.485467966573196-2.686677616222369-8.586358498647314-1.829384433844098-2.003259871771661-4.771168870203837-3.02167315108818-8.699142566498267-3.037785160777275h-.063105371304118c-4.770497536455878,0-7.521623191454637,1.749495719112019-9.001242748227014,3.212331932445522-1.462836213328046,1.463507547072368-2.130141948093296,3.14855522741891-2.130141948093296,4.150185163302012,0,1.702502357511548,0,4.246185887719548,11.035383971913689,7.839835382892488l1.972378519853009.62031237316296c8.793800623447169,2.814902360036285,18.748337278480903,5.995010273099979,19.336425632256578,14.741817534933944.096000724422993,1.478276889289191.096000724422993,6.677756683819098-4.102520467966315,11.162937381977827-3.720531571496394,3.991079067587634-9.366448301252603,6.011122282790893-16.792742102032207,6.011122282790893h-.031552685657516c-6.042674968433857,0-11.258266772656498-2.035483891157128-15.091582412009302-5.915792892112222-3.784979610261871-3.800420286224835-5.915121558366081-9.143565500513432-5.852016187072877-14.64581681051277l9.54166640666881.111441400373224c-.031552685644783,2.909560416977911,1.113071336258145,5.852016187074696,3.085449856120249,7.823723373199755,2.035483891160766,2.050924567112816,4.818162231804308,3.084778522383203,8.31648233629312,3.084778522383203h.01611200969819c4.611391440750594,0,8.014382154564373-1.033853955270388,9.826983244969597-2.973337122008161,1.686390347824272-1.813272424145907,1.57494894744741-3.927973696292611,1.558165604013993-4.023974420710147-.142322752275504-2.273136034122217-8.634694527718239-4.977268327516867-12.704990976300905-6.280998445141449l-2.020043215199621-.651865058809562c-12.515003528680609-4.07029644857721-17.635265942219121-8.952906719152452-17.635265942219121-16.888071492723611Z"/>
  <path class="cls-1" d="M117.014866960102154,48.702231439699062c0,12.069909260919303-9.255006900886656,21.88145182993685-20.641498417351613,21.88145182993685-3.672866876157059,0-7.138962961264042-1.017070611842428-10.145195436400172-2.814231026295602v16.871959483032697h-9.445665682242179V28.077516365777228h9.445665682242179v1.558165604017631c3.00623247513613-1.797160414456812,6.472328560243113-2.831014369725381,10.145195436400172-2.831014369725381,11.386491516464957,0,20.641498417351613,9.827654578706642,20.641498417351613,21.897563839629584ZM107.473871887177665,48.702231439699062c0-.012755341005686-.001342667479548-.025510682013191-.004699336166595-.033566686859558-.018126010902051-6.551545941227232-4.414690655754384-11.887977818139916-9.962592659880102-12.284736056819384h-.006713337372275c-.216169463375991-.015440675957507-.430996259276071-.03759468928547-.650522391335471-.03759468928547-.07049004241162,0-.138294749865963.010741339796368-.208113458531443.012755341007505-.090630054519352,0-.178574774095978-.010741339794549-.269204828608054-.007384671107502-.198043452481215.004028002422274-.383331563938555.038937356757742-.574661679036581.057063367661613-.018126010905689.000671333733408-.033566686861377.002685334944545-.051692697763428.004028002420455-2.042197228525765.200728787418484-3.722545572716626,1.040567292642663-5.065884380832358,2.245611350901527-2.691376952388964,2.242254682209023-4.45161401130099,5.903037551095622-4.45161401130099,10.049194711977179,0,.015440675957507.002014001216594.03021001817433.002014001216594.045650694130018,0,.014769342218642-.002014001216594.031552685648421-.002014001216594.045650694128199,0,.305456850421251.017454677170463.639781051540922.046322027865244.984846592456961.012755341007505.169847435510746.030210018177968.337009536067853.049678696552292.504171636628598.012084007277736.104728063002767.025510682022286.211470127214852.040951357976155.319554858901029.150378757127328,1.133211348374971.428982258059477,2.214058665253106.825740496737126,3.223744605980755,1.065406640915171,2.841084375786522,3.136471220152089,5.659343404504398,6.756302731073447,6.757645398545719.757264455545737.24973615023373,1.549438265426943.399443573625831,2.365108756113841.447108268966986.020140012116826.002014001212956.03893735676138.006713337374094.059748702615252.008056004848186.030210018172511.001342667472272.059077368870931-.001342667474091.089287387043441,0,.130238745012321.004699336155682.257792155085554.022154013329782.388030900096055.022154013329782.096672058154581,0,.19065878136098-.014769342224099.287330839515562-.017454677174101.25846348882078-.003356668683409.513570308947237-.019468678374324.766663127869833-.044308026650469.022154013322506-.003356668687047.044308026654107-.005370669900003.067133373717297-.008727338583412,1.413828850518257-.157092094503241,2.74172698268012-.651865058811381,3.932673032453749-1.416514185470078.017454677165006-.010741339796368.033566686861377-.0241680145391.050350030289337-.034238020594785.255106820131914-.165819433086654.506185637845192-.337680869804899.746523115749369-.526996983693607.19200144883871-.148364755921648.376618226569917-.310156186580571.559221003080893-.472618950981996.062434037559797-.057063367659794.129567411278913-.108084731686176.19065878136098-.167162100560745,2.449025473270012-2.26373736179994,4.023974420717423-5.752658793971932,4.023974420717423-9.675933154103404,0,.002014001209318,0,0,0,0Z"/>
  <path class="cls-1" d="M153.298441453955093,38.914185551487208v30.81086186828361h-9.541666406670629v-1.814615091621818c-3.513089446705635,2.280520705233357-7.022150890987177,2.614173572612344-8.730023918398729,2.614173572612344-8.450749083744086,0-15.326549220029847-6.875800136289399-15.326549220029847-15.326549220022571,0-8.450077749997945,6.875800136285761-15.326549220022571,15.326549220029847-15.324535218811434h8.730023918398729v-.959335910440132c0-1.460822212127823-1.189603382294081-2.650425594425542-2.650425594423723-2.650425594425542h-6.079598323975006v-9.541666406666991h6.079598323975006c6.723407377952753,0,12.192092001094352,5.468684623143417,12.192092001094352,12.192092001092533ZM143.572158269558713,49.413173867381374h-8.545407140672978c-3.190177919124835,0-5.784882813361037,2.594704894234383-5.784882813361037,5.784882813357399s2.594704894236202,5.785554147092625,5.784882813361037,5.785554147092625c5.730504780634874,0,7.799555358662474-6.638819327059537,8.545407140672978-11.570436960450024Z"/>
  <path class="cls-1" d="M181.849593962864674,26.722764884133539v9.582617764634051h-12.561325556540396v34.278300620868322h-9.455064354577189V26.722764884133539h22.016389911117585Z"/>
  <path class="cls-1" d="M208.082631077257247,45.542263538752195l17.114982295903246,25.042762398354171h-11.626157660646641l-12.463982164643312-18.435495756943055-6.019178287639079,5.690224756413954v12.745271000529101h-9.45573568830514V13.251782113699846h9.45573568830514v32.790625059255035l20.798590511854854-19.467335711004125,11.951754523168347.147022088443919-19.756009217997416,18.82016998835752Z"/>
  <path class="cls-1" d="M275.252256817966554,26.722093550394675l-18.557678497119923,43.858233050552371h-10.288860856151587l-19.002772764883048-43.858233050552371h10.400302256537543l13.706620912187645,31.645329703615062,13.390422721971845-31.645329703615062h10.351966227457524Z"/>
  <path class="cls-1" d="M283.697635231801542,51.926647379416863c1.145295355641792,5.566699348770271,5.629133386324611,9.700772502383188,10.988390610304123,9.700772502383188,4.007191077278549,0,7.53706386741942-2.322143396939282,9.524883063235393-5.836575511120827h9.908214627181223c-2.671916017230615,8.69914256649281-10.36874957089276,14.980141011634259-19.433097690416616,14.980141011634259-11.27437878235105,0-20.434056292546302-9.716213178337057-20.434056292546302-21.690121714838824,0-11.958467860547898,9.159677510195252-21.690121714837005,20.434056292546302-21.690121714837005,9.064348119523856,0,16.776630092355845,6.296439121093499,19.433097690416616,14.995581687588128.651865058809562,2.098589262448513,1.001629935884921,4.356955954355726,1.001629935884921,6.694540027248877,0,.969405916499454-.063776705033888,1.908601814824578-.190658781355523,2.845783711942204h-31.232459455250137ZM304.210908905341057,42.386323640225783c-1.971035852382556-3.514432114185183-5.500908642527065-5.852016187074696-9.524883063235393-5.852016187074696-4.023303086967644,0-7.553175877112153,2.337584072889513-9.525554396968801,5.852016187074696h19.050437460204193Z"/>
  <path class="cls-1" d="M360.414969382807612,48.633755398507674v21.87540982630162h-9.541666406665172v-21.87540982630162c0-6.808666762570283-4.978610994992778-12.349184095593955-11.09781800946439-12.349184095593955-6.119207014486165,0-11.097818009478942,5.540517333023672-11.097818009478942,12.349184095593955v21.951270538598692h-9.541666406665172v-21.949927871128239c0-12.070580594656349,9.258363569570065-21.890179168520262,20.639484416144114-21.890179168520262,11.379778179081768,0,20.639484416129562,9.819598573863914,20.639484416129562,21.888836501049809Z"/>
  <path class="cls-1" d="M382.07488107946665,61.098408896891669v9.540995072933583h-3.791021613902558c-6.782484746821865,0-12.298834065299161-5.516349318486391-12.298834065299161-12.298834065304618V17.610752069268528h9.541666406665172v11.560366954390702h6.26824310414122v9.54166640666881h-6.26824310414122v19.627784474192595c0,1.520570914732161,1.236596743900009,2.757838992371035,2.757167658633989,2.757838992371035h3.791021613902558Z"/>
  <path class="cls-1" d="M427.739673216801748,26.799296930171295v21.949256537394831c0,12.071251928391575-9.260377570790297,21.890850502259127-20.640155749872065,21.890850502259127-11.379778179099958,0-20.639484416138657-9.819598573867552-20.639484416138657-21.890850502259127v-21.874738492562756h9.541666406665172v21.874738492562756c0,6.809338096307329,4.978610994987321,12.349855429325544,11.097818009473485,12.349855429325544,6.11920701447707,0,11.097818009460752-5.540517333018215,11.097818009460752-12.349855429325544v-21.949256537394831h9.542337740411313Z"/>
  <path class="cls-1" d="M455.653730009114952,26.722764884133539v9.582617764634051h-12.561996890271985v34.278300620868322h-9.455064354571732V26.722764884133539h22.017061244843717Z"/>
  <path class="cls-1" d="M466.425951156046722,51.926647379416863c1.145295355650887,5.566699348770271,5.629804720070752,9.700772502383188,10.988390610307761,9.700772502383188,4.007862411017413,0,7.537735201161922-2.322143396939282,9.52488306324085-5.836575511120827h9.907543293429626c-2.670565606531454,8.69914256649281-10.368078237135705,14.980141011634259-19.432426356670476,14.980141011634259-11.274378782349231,0-20.434056292555397-9.716213178337057-20.434056292555397-21.690121714838824,0-11.958467860547898,9.159677510206166-21.690121714837005,20.434056292555397-21.690121714837005,9.06434811953477,0,16.776630092352207,6.296439121093499,19.432426356670476,14.995581687588128.652536392555703,2.098589262448513,1.001629935894016,4.356955954355726,1.001629935894016,6.694540027248877,0,.969405916499454-.063105371302299,1.908601814824578-.190658781364618,2.845783711942204h-31.231788121507634ZM486.939224829595332,42.386323640225783c-1.971035852388013-3.514432114185183-5.500908642523427-5.852016187074696-9.52488306324085-5.852016187074696-4.022631753230598,0-7.553847210849199,2.337584072889513-9.524883063237212,5.852016187074696h19.049766126478062Z"/>
  <path class="cls-1" d="M543.152683979376889,61.130632916277136h25.681200782424639v9.455064354569913h-38.47145114335035v-.794859144831207c0-11.23812676054331,8.955592054098815-17.998457494035392,16.858532808282689-23.963257748961041,6.526706592962-4.928260964703441,12.693578302776586-9.58261776463587,12.693578302776586-15.89718289663324,0-5.241102486232194-4.041429097884247-8.369517701536097-10.811158503696788-8.369517701536097-6.066171649230455,0-10.370763572091164,2.644383590786674-12.794278363346166,7.864003397433407l-.382660230190595.819698493107353-7.116137614206309-4.494579370481006.228253470650088-.607557032155455c3.025029819767951-8.041906837786883,10.644667736862175-12.654640946013387,20.902647241106024-12.654640946013387,12.078636599508172,0,19.88490529554656,6.427349199850141,19.88490529554656,16.3704731813541,0,10.207629473959969-8.681687889329623,16.908882838577483-16.341605830661138,22.821319062002658-4.103191801697903,3.169366573265506-8.003640814762548,6.179627050822091-10.331826215335241,9.451036352144001Z"/>
  <path class="cls-1" d="M586.147581843903026,65.154607336987283c0,3.02771515472341-2.463794815479559,5.48949596899547-5.488824635252968,5.48949596899547-3.027715154727048,0-5.491509970204788-2.463123481744333-5.491509970204788-5.48949596899547,0-3.0263724872475,2.46379481547774-5.489495968991832,5.491509970204788-5.489495968991832,3.025029819773408,0,5.488824635252968,2.461780814270242,5.488824635252968,5.489495968991832Z"/>
  <path class="cls-1" d="M635.75377435226801,41.91773269166606c0,17.878288755078756-8.64677853498506,29.429928370893322-22.025117249695541,29.429928370893322-13.423989408822308,0-22.098963960779656-11.552982283286838-22.098963960779656-29.429928370893322,0-17.877617421341711,8.674974551957348-29.429928370889684,22.098963960779656-29.429928370889684,13.37833871471048,0,22.025117249695541,11.550296948340474,22.025117249695541,29.429928370889684ZM625.687796296861052,41.919075359141971c0-13.226617290098147-4.472425357153043-21.120830705704066-11.959139194288582-21.120830705704066-7.533707198726916,0-12.03298590536906,7.896227416817055-12.03298590536906,21.120830705704066,0,13.223931955148146,4.499278706642144,21.119488038226336,12.03298590536906,21.119488038226336,7.48671383713554,0,11.959139194288582-7.893542081868873,11.959139194288582-21.119488038226336Z"/>
</svg>