<?xml version="1.0" encoding="UTF-8"?>
<svg id="Layer_1" data-name="Layer 1" xmlns="http://www.w3.org/2000/svg" xmlns:xlink="http://www.w3.org/1999/xlink" viewBox="0 0 399.547257062668905 187.764327533012874">
  <defs>
    <style>
      .cls-1 {
        fill: url(#linear-gradient);
      }

      .cls-2 {
        fill: #070000;
      }
    </style>
    <linearGradient id="linear-gradient" x1="121.136017336003533" y1="45.753874028327118" x2="285.943695151531358" y2="85.082978961575719" gradientUnits="userSpaceOnUse">
      <stop offset="0" stop-color="#c93273"/>
      <stop offset=".428001644736842" stop-color="#e03234"/>
      <stop offset="1" stop-color="#f1bf15"/>
    </linearGradient>
  </defs>
  <g>
    <path class="cls-2" d="M22.871298846713216,126.539679372474893c0-2.199564305819877,1.076274162465779-4.575438539965035,2.885997626768585-6.375758808087994,1.596584350945705-1.596584350947523,4.492376973732462-3.498772577659111,9.179086668462332-3.498772577659111h.046232381204391c3.944248996562237.009011396336064,7.043777536522612,1.225158101940906,9.215915853492334,3.619446928601974,2.867583034254494,3.155555917184756,3.043892962577956,7.239285657042274,2.997660581373566,8.732826649878916h-5.578054332376269c.027817788690299-.371034449164654.111662954604981-3.201396498549002-1.567982962573296-5.011119962849989-1.067654565971679-1.169130724718343-2.784521468020102-1.763491083094777-5.076942336092543-1.772894279272805h-.036829185028182c-2.784129668178139,0-4.389725415463545,1.021030384925325-5.253252264416005,1.874762237861432-.853731852937926.854123652776252-1.243180894616671,1.837541252991286-1.243180894616671,2.422106615349549,0,.99360439607517,0,2.478133992575749,6.440405781810114,4.575438539966854l1.151107932044397.36202305282859c5.132186113632997,1.642816732151914,10.94179415187682,3.498772577657292,11.285010812349356,8.603532702440134.056027377224382.862743249272171.056027377224382,3.897233015673919-2.39428882665743,6.514847751546768-2.171354717289432,2.329250053098804-5.466391377771288,3.508175773835319-9.800481215850596,3.508175773835319h-.01841459251591c-3.52659036634941,0-6.570483328927367-1.187937117072579-8.807660419457534-3.452540196452901-2.208967501996085-2.217978898333968-3.452148396612756-5.336313830650397-3.415319211584574-8.547505325217571l5.56865113620006.065038773558626c-.018414592514091,1.698060509696006.649604135918707,3.415319211584574,1.800712067964923,4.566035343788826,1.187937117072579,1.196948513410462,2.811947456870257,1.80032026812296,4.853616426877124,1.80032026812296h.009403196178027c2.691273105927394,0,4.677306498553662-.603371754712498,5.73516606850535-1.735281494562514.984201199898962-1.058251369793652.919162426336698-2.292420868070622.909367430318525-2.348448245295003-.083061566230754-1.326634260689389-5.039329551380433-2.904804019121002-7.414811985685446-3.665679309806364l-1.178925720736515-.380437645342681c-7.303932630762574-2.375482434305013-10.292190015958113-5.225042675883742-10.292190015958113-9.856116793233014Z"/>
    <path class="cls-2" d="M73.932613088966718,137.352179576912931c0,7.044169336362756-5.401352604209023,12.770324008533862-12.046669702716827,12.770324008533862-2.143536928597314,0-4.166399506251764-.593576758696145-5.920879193010478-1.642424932311769v9.846713597054986h-5.512623758973859v-33.011487379975733h5.512623758973859v.909367430318525c1.754479686758714-1.048848173615625,3.777342264413164-1.652219928328122,5.920879193010478-1.652219928328122,6.645317098507803,0,12.046669702716827,5.735557868345495,12.046669702716827,12.779727204708252ZM68.364353752608622,137.352179576912931c0-.007444196973665-.000783599682109-.014888393947331-.002742598884652-.019589992034525-.010578595700281-3.823574645619374-2.576475752597617-6.937991579527079-5.814309636332837-7.169545285394634h-.003917998406905c-.126159548713986-.009011396337883-.251535497744044-.021940791080851-.379654045660573-.021940791080851-.041138983277051,0-.080710767189885.006268797451412-.121457950624972.007444196973665-.052892978497766,0-.104218757633134-.006268797451412-.157111736129082-.00430979824705-.115580953013705.002350799042688-.223717709053744.022724390761141-.335380663660544.033302986461422-.010578595700281.000391799840145-.019589992034525.001567199362398-.030168587736625.002350799042688-1.191855115477665.117148152377922-2.172530116808048.607289753121222-2.956521598096515,1.310570467219804-1.570725561459767,1.308611468015442-2.598024743836504,3.445095999479236-2.598024743836504,5.864851815786096,0,.009011396336064.001175399524072.017630992831982.001175399524072.026642389169865,0,.008619596495919-.001175399524072.018414592514091-.001175399524072.026642389168046,0,.178268927529643.010186795860136.373385248209161.02703418901001.574770366341909.007444196973665.099125359702157.017630992833801.196683520041915.028993188214372.294241680383493.007052397133521.061120775151721.014888393947331.123416949827515.023899790285213.186496724183598.087763164321586.661358131141242.25036009822179,1.292155874705713.481913804087526,1.881422835152989.621786347230227,1.658096925941209,1.830488855859585,3.302872657295666,3.943073597039984,3.943857196720273.441950220336366.145749540748511.904274032389367.233120905229953,1.380310838867445.260938693920252.011753995220715.001175399522253.02272439076296.003917998408724.034870185825639.004701598089014.017630992831982.000783599682109.034478385983675-.00078359968029.052109378815658,0,.076009169100871.002742598884652.150451138837525.012929394744788.226460307938396.012929394744788.056419177064527,0,.111271154764836-.008619596495919.167690331829363-.010186795860136.15084293867767-.001958999202543.299726878152796-.01136219538057.447435418103851-.025858789487756.012929394744788-.001958999202543.025858789489575-.003134398724796.039179984072689-.005093397929159.825130464563699-.091681162728491,1.600110549514284-.380437645340862,2.295163466958911-.826697663926097.010186795858317-.006268797451412.019589992034525-.014104794265222.029384988052698-.019981791876489.148883939475127-.09677456065765.295417079905747-.197075319883879.435681422883135-.307562874966607.112054754448764-.086587764801152.219799710646839-.181011526414295.32636926732448-.275827087869402.036437385186218-.033302986461422.075617369258907-.063079774357902.111271154764836-.097558160341578,1.429285818958306-1.321149062918266,2.348448245295003-3.35733283515583,2.348448245295003-5.647011104343619,0,.001175399522253,0,0,0,0Z"/>
    <path class="cls-2" d="M95.108219080534582,131.639737899168722v17.981653689992527h-5.568651136198241v-1.059034969473942c-2.050288566504605,1.330944058936439-4.098226333964703,1.525668579775811-5.094965128766489,1.525668579775811-4.931976395022502,0-8.944790363710126-4.012813968687624-8.944790363710126-8.944790363711945,0-4.931584595182358,4.012813968687624-8.944790363710126,8.944790363710126-8.943614964187873h5.094965128766489v-.559881972394578c0-.852556453413854-.694269317762519-1.546825771174554-1.546825771176373-1.546825771174554h-3.548139357590117v-5.56865113620006h3.548139357590117c3.923875404841965,0,7.115476907374614,3.191601502532649,7.115476907374614,7.115476907374614ZM89.431822988136446,137.767095608239288h-4.987220172566595c-1.861832843114826,0-3.376139227511885,1.51430638439524-3.376139227511885,3.376139227511885s1.514306384397059,3.376531027353849,3.376139227511885,3.376531027353849c3.344403440412862,0,4.551930549523604-3.874508624912778,4.987220172566595-6.752670254865734Z"/>
    <path class="cls-2" d="M111.77107450665153,124.524652791636072v5.592550926483455h-7.330966819772584v20.005299867327267h-5.518108956744982v-25.597850793810721h12.849075776517566Z"/>
    <path class="cls-2" d="M127.081045082753008,135.507977726630088l9.988545139396592,14.615309458496995h-6.785189641643228l-7.274155842867913-10.759215426100127-3.512877371924333,3.320895449969612v7.438319976130515h-5.518500756586945v-33.460489997443801h5.518500756586945v19.137071420285793l12.138350865445318-11.36141178129219,6.975212564397225.085804165117224-11.529885712803662,10.98371673483598Z"/>
    <path class="cls-2" d="M166.2821863464751,124.524260991794108l-10.830522997111984,25.596283594448323h-6.004724358925159l-11.090286291511802-25.596283594448323h6.069763132485605l7.999377348045527,18.46866089201103,7.814839623064472-18.46866089201103h6.041553543953341Z"/>
    <path class="cls-2" d="M171.211028342772806,139.233994211907884c.668410528272943,3.248804279275646,3.285241664463683,5.661507698450805,6.412979792956321,5.661507698450805,2.338653249276831,0,4.398736811799608-1.355235649061797,5.558856140181888-3.40630781524851h5.782573849231994c-1.559367885129177,5.076942336090724-6.051348539967876,8.742621645897088-11.341429989413882,8.742621645897088-6.579886525105394,0-11.925603551931999-5.670519094786869-11.925603551931999-12.658661053925243,0-6.979130562802311,5.345717026826605-12.658661053927062,11.925603551931999-12.658661053927062,5.290081449446006,0,9.791078019672568,3.674690706142428,11.341429989413882,8.751633042234971.3804376453445,1.224766302100761.5845653623619,2.542780966294231.5845653623619,3.907028011692091,0,.565758970004026-.037220984868327,1.11388694717607-.111271154764836,1.66083952482586h-18.227703989967267ZM183.182864275911015,133.666126675389933c-1.150324332364107-2.051072166186714-3.210407894886885-3.415319211584574-5.558856140181888-3.415319211584574-2.348056445454858,0-4.408140007977636,1.36424704539786-5.559247940022033,3.415319211584574h11.118104080203921Z"/>
    <path class="cls-2" d="M215.984346941259901,137.312215993159953v12.766797809965283h-5.56865113620006v-12.766797809965283c0-3.973633984614935-2.905587618803111-7.207158070103105-6.476843166994513-7.207158070103105-3.57125554819504,0-6.476843166998151,3.23352408548817-6.476843166998151,7.207158070103105v12.81107119196713h-5.568651136196422v-12.810287592285022c0-7.04456113620472,5.403311603411566-12.775417406463021,12.045494303194573-12.775417406463021,6.641399100099079,0,12.045494303194573,5.7308562702583,12.045494303194573,12.774633806780912Z"/>
    <path class="cls-2" d="M228.625377002351343,144.58676363586801v5.568259336358096h-2.212493700564664c-3.95835379082564,0-7.17777308204677-3.219419291222948-7.17777308204677-7.177773082048589v-23.770496336677752h5.568651136196422v6.746793257252648h3.658235112834518v5.56865113620006h-3.658235112834518v11.455051943225044c0,.887426639237674.721695306612673,1.609513745690492,1.609121945850347,1.609513745690492h2.212493700564664Z"/>
    <path class="cls-2" d="M255.275993968186413,124.569317973478064v12.809895792444877c0,7.044952936044865-5.404487002935639,12.775809206303165-12.045886103034718,12.775809206303165s-12.045494303194573-5.7308562702583-12.045494303194573-12.775809206303165v-12.766406010125138h5.56865113620006v12.766406010125138c0,3.974025784456899,2.905587618803111,7.207549869945069,6.476843166994513,7.207549869945069s6.476843166994513-3.23352408548817,6.476843166994513-7.207549869945069v-12.809895792444877h5.569042936040205Z"/>
    <path class="cls-2" d="M271.567031345458417,124.524652791636072v5.592550926483455h-7.331358619612729v20.005299867327267h-5.518108956746801v-25.597850793810721h12.84946757635953Z"/>
    <path class="cls-2" d="M277.853851589702572,139.233994211907884c.668410528272943,3.248804279275646,3.285633464303828,5.661507698450805,6.412979792956321,5.661507698450805,2.339045049116976,0,4.399128611639753-1.355235649061797,5.558856140181888-3.40630781524851h5.782182049391849c-1.558579766395269,5.076942336090724-6.050956740127731,8.742621645897088-11.341038189573737,8.742621645897088-6.579886525105394,0-11.925603551931999-5.670519094786869-11.925603551931999-12.658661053925243,0-6.979130562802311,5.345717026826605-12.658661053927062,11.925603551931999-12.658661053927062,5.290081449446006,0,9.791078019672568,3.674690706142428,11.341038189573737,8.751633042234971.380829445184645,1.224766302100761.5845653623619,2.542780966294231.5845653623619,3.907028011692091,0,.565758970004026-.036829185028182,1.11388694717607-.111271154768474,1.66083952482586h-18.227312190123484ZM289.825687522840781,133.666126675389933c-1.150324332364107-2.051072166186714-3.210407894886885-3.415319211584574-5.558856140181888-3.415319211584574-2.347664645611076,0-4.408531807817781,1.36424704539786-5.558856140181888,3.415319211584574h11.117712280363776Z"/>
    <path class="cls-2" d="M322.632655385958969,144.605570028222246h14.987911107025866v5.518108956746801h-22.452481672484282v-.463891011417218c0-6.558729333706651,5.226609875247959-10.504153729789323,9.838877600239357-13.985295314614632,3.809078051512188-2.876202630748594,7.408151388397528-5.592550926483455,7.408151388397528-9.277820228326163,0-3.058781356525287-2.358635041156958-4.884568614295858-6.309544635008933-4.884568614295858-3.540303360772668,0-6.052523939491948,1.543299572607793-7.466921364502923,4.589543334232076l-.223325909209962.478387605522585-4.153078311668651-2.623099933642152.133211945845687-.354578855854925c1.765450082300958-4.693370292023246,6.2123782745075-7.385426997632749,12.199079840760533-7.385426997632749,7.049262734290096,0,11.605111282220605,3.751091675085263,11.605111282220605,9.55403911603571,0,5.957316578196696-5.066755540232407,9.868262588295693-9.537191722884018,13.318843785546051-2.394680626501213,1.849687048053966-4.671037701104069,3.606517533857186-6.029799548730807,5.515758157700475Z"/>
    <path class="cls-2" d="M347.725084385235277,146.954018273517249c0,1.767017281661538-1.437905415452406,3.203747297593509-3.203355497753364,3.203747297593509-1.767017281661538,0-3.204922697113943-1.437513615612261-3.204922697113943-3.203747297593509,0-1.766233681979429,1.437905415452406-3.203747297593509,3.204922697113943-3.203747297593509,1.765450082300958,0,3.203355497753364,1.436730015931971,3.203355497753364,3.203747297593509Z"/>
    <path class="cls-2" d="M376.675958215954779,133.392650386565037c0,10.434021558299719-5.046381948512135,17.175721417625027-12.854169174446724,17.175721417625027-7.834429615100817,0-12.897267156924499-6.742483459007417-12.897267156924499-17.175721417625027,0-10.433629758459574,5.062837541823683-17.175721417625027,12.897267156924499-17.175721417625027,7.80778722593459,0,12.854169174446724,6.7409162596432,12.854169174446724,17.175721417625027ZM370.801311404154148,133.393433986247146c0-7.719240461929076-2.610170538901002-12.326414788993134-6.979522362646094-12.326414788993134-4.396777812595246,0-7.022620345120231,4.608349726586312-7.022620345120231,12.326414788993134,0,7.717673262564858,2.625842532524985,12.325631189311025,7.022620345120231,12.325631189311025,4.369351823745092,0,6.979522362646094-4.606782527223913,6.979522362646094-12.325631189311025Z"/>
  </g>
  <path class="cls-1" d="M260.301423245732622,41.20356713203455c-5.482073027949809-6.361925237044488-11.774545718428271-9.070574553137703-12.039760883295457-9.182850172459439l-.061175818222182-.025010113919052c-21.855240987692014-8.636406172658099-39.475855852477252,6.854390573709679-46.037862000872337,13.914979640594538-3.25221445385796,3.499076873262311-6.720343560258698,7.037378241735496-10.602129155146031,10.817144163296689l-8.151317919955545,7.936662769558097,12.764694329194754,13.981553325125788c-7.747557519709517,7.953396155131486-14.33673292855201,11.813410355885935-18.614901839724553,13.666857719050313-4.925013224399663,2.133596624835263-7.902116425153508,2.125859683117596-7.90283614065811,2.126219540872626l-.136925875483939-.004498221927861-.136925875489396.009176372732327c-6.782059165108876.455759845734065-12.942464059780832-.942107600574673-18.302905166801793-4.15185883943559-6.676440914243358-3.997659791748447-11.572665518306167-10.860866880437243-13.433310036554758-18.830096776753635-.793846205835507-3.400475848602582-1.08910949318124-6.766225423922151-.877153275940145-10.003325852105263.611398324437687-9.337948864531427,6.028876885506179-17.754302020479372,14.491651691747393-22.513780677934847,11.666048605529795-6.560656681818728,21.145241638596417-3.611262528143925,25.714355544065256-1.30718329224328-.162025953843113.592348354573915-.255858863256435,1.212945542853049-.255858863256435,1.856708574063305,0,3.883359972560356,3.14803563400892,7.031440588791156,7.031440588789337,7.031440588791156s7.031440588789337-3.1480806162308,7.031440588789337-7.031440588791156c0-3.883382463671296-3.14803563400892-7.031463079900277-7.031440588789337-7.031463079900277-1.17763450072016,0-2.285456597119264.293104140821015-3.26049118220908.804776885117462-1.733254873252008-.954432728658503-4.193782267804636-2.078695826205148-7.237279224209487-2.861184021669033-5.662361762821092-1.455804544741113-14.543831066112034-1.99199259854322-24.701535894779227,3.720569320990762-10.097428654837131,5.678735290637633-16.563892569485688,15.761229848674702-17.297822459238887,26.970439035205345-.247582134912591,3.780485637071251.092303513958541,7.690340136787199,1.009940787245796,11.621066386249367,2.199270664979849,9.419456645866376,8.022488843944302,17.553141535865507,15.976424785705603,22.315678984232363,5.573836755276716,3.337320812735925,11.836261323280269,5.021635031413098,18.65196718840707,5.021635031413098.910080260448012,0,1.831136182405317-.030228051356971,2.760648761581251-.090324296312247,1.742431245986154-.008636586102512,15.071562462688235-.71647678867339,32.326741778051655-19.409647689941266l1.720839780735332-1.864243095793427-12.599879477758805-13.800904732501294,4.316313833120148-4.202598782783753c3.948539208295188-3.844540317322753,7.479463492807554-7.447256223804288,10.795012911410595-11.014346212616147,5.784893328136604-6.224279646050491,21.248340885184007-19.899054235695075,39.913802739378298-12.554717329599953.402500898106155.179389090484619,5.65516460773506,2.587377252917577,10.129815852715183,7.857494063626291,6.084474908535412,7.166027388873772,7.976067193647395,16.103454572947157,5.622417552103798,26.564159630679569-.87355469839531,3.882145452642362-2.512886697797512,7.417747887957375-4.872294063410664,10.508925996799007-.366695051558054.480230173021482-.745985124520303.957581484008188-1.127614272878418,1.418739196054958-7.198594515635705,8.699921066281604-18.307403388733292,12.641263119492578-28.990320609704213,10.287793406825585-1.085510915640043-.239215442126806-2.12675932750426-.54307033335499-3.131122319562564-.897912570135304.156358194211862-.715172304315274.241104695334798-1.457109029099229.241104695334798-2.219197788121164,0-5.713416581702404-4.631639190263741-10.345055771967964-10.345010789744265-10.345055771967964-5.713461563926103,0-10.345100754189843,4.63163919026556-10.345100754189843,10.345055771967964,0,5.713416581700585,4.631639190263741,10.345055771966145,10.345100754189843,10.345055771966145,2.940397709815443,0,5.592279465179672-1.228846757368956,7.475684986384294-3.198550666260417,1.455264758111298.559308914513167,2.978902489521715,1.017857657840068,4.570013549853684,1.368471566011067,12.715213887988284,2.801672545561814,25.911917451137924-1.857945585094058,34.438027222126038-12.161572733104549.427511012025207-.516755735076003.852503019774304-1.051324428985026,1.262920788471092-1.589131842683855,2.846294907089032-3.72866612045982,4.821554120062501-7.984523850869664,5.871079260276019-12.64917999008685,3.460032306928042-15.377621482663017-1.879716979226941-25.645082926372197-6.968465481801104-31.5505286021762Z"/>
</svg>