<?xml version="1.0" encoding="UTF-8"?>
<svg id="Layer_1" data-name="Layer 1" xmlns="http://www.w3.org/2000/svg" xmlns:xlink="http://www.w3.org/1999/xlink" viewBox="0 0 665.277072013217548 187.764327533012874">
  <defs>
    <style>
      .cls-1 {
        fill: url(#linear-gradient);
      }

      .cls-2 {
        fill: #070000;
      }
    </style>
    <linearGradient id="linear-gradient" x1="33.253558899654308" y1="76.235872384024333" x2="182.724482846944198" y2="111.905070144170921" gradientUnits="userSpaceOnUse">
      <stop offset="0" stop-color="#c93273"/>
      <stop offset=".428001644736842" stop-color="#e03234"/>
      <stop offset="1" stop-color="#f1bf15"/>
    </linearGradient>
  </defs>
  <g>
    <path class="cls-2" d="M183.256427771553717,80.545608514818014c0-2.733331672861823,1.33745317159628-5.685758331967008,3.586341485981393-7.922961580417905,1.984026819898645-1.984026819896826,5.582540249557496-4.347818282622029,11.406571861727571-4.347818282622029h.057451574175502c4.901398281203001.011198188185517,8.75308813941956,1.52246671553803,11.452338369974314,4.497776628764768,3.56345823185984,3.921313376062244,3.782553218101384,8.996040135274598,3.725101643934977,10.852018107656477h-6.931678487091631c.03456832005395-.461073226613735.138760157959041-3.978278072489047-1.948484744347297-6.227166386870522-1.326741861161281-1.452843197686889-3.460240149452147-2.191436740211429-6.308961848404579-2.203121806142008h-.045766508241286c-3.45975327169981,0-5.454978279780335,1.268803409238899-6.528056834646122,2.329710020418133-1.060906611177415,1.061393488926115-1.544863091905427,2.283456634435424-1.544863091905427,3.00987823327705,0,1.234721966935467,0,3.07950175113001,8.003296408707683,5.685758331967008l1.430446821308578.449875038426399c6.377611610765598,2.041478394070509,13.597034846454335,4.347818282623848,14.023539753012301,10.691348451076919.069623517852961,1.072104799364752.069623517852961,4.842972951539195-2.975309913228557,8.095803180676739-2.698276475059174,2.89448820718826-6.792918329127133,4.359503348556245-12.178759968806844,4.359503348556245h-.02288325412519c-4.382386602672341,0-8.16493982078282-1.476213329553502-10.94501175737787-4.290366708453803-2.745016738786944-2.756214926977918-4.289879830697828-6.631274917055634-4.244113322461999-10.62172493322214l6.919993421157415.080821706036659c-.022883254119733,2.110128156427891.807243304878284,4.244113322465637,2.237690126195957,5.674073266034611,1.476213329553502,1.487411517739019,3.49432159175376,2.237203248449077,6.031441532486497,2.237203248449077h.011685065934216c3.344363245614659,0,5.812346546244953-.749791730710058,7.126916463719681-2.1563815424106,1.223036901006708-1.315056795225246,1.142215194966411-2.848721698950612,1.130043251283496-2.918345216801754-.103218082402236-1.648568052067276-6.262221584662257-3.609711617844368-9.214161366026019-4.555228202936632l-1.465015141367985-.472758292544313c-9.076374963568014-2.951939781360124-12.789791541568775-6.493001636848931-12.789791541568775-12.247896608918381Z"/>
    <path class="cls-2" d="M246.708770177239785,93.981973704685515c0,8.753575017162802-6.712096623094112,15.869293292698785-14.970030093594687,15.869293292698785-2.663708155007043,0-5.177457963874986-.737619787030781-7.357696515902717-2.04099151632181v12.236211542985984h-6.850369903298997v-41.022371469278369h6.850369903298997v1.130043251285315c2.180238552027731-1.303371729292849,4.693988360895673-2.053163460001088,7.357696515902717-2.053163460001088,8.257933470500575,0,14.970030093594687,7.127403341466561,14.970030093594687,15.880978358631182ZM239.789263633834707,93.981973704685515c0-.009250677196178-.000973755497398-.018501354394175-.003408144233617-.024343887360374-.013145699174856-4.7514399350639-3.201708065682396-8.621631147667358-7.225265768656755-8.90937589627174h-.00486877747062c-.156774634604517-.011198188187336-.312575513711636-.027265153845292-.471784537050553-.027265153845292-.051122163462423,0-.100296815930051.007790043955538-.150932101640137.009250677197997-.065728495872463,0-.129509480759225-.007790043955538-.195237976629869-.005355655219319-.143628935433298.002921266483099-.278007193661324.028238909339052-.416767351614908.041384608513908-.013145699176675.000486877745061-.024343887362193.001947510985701-.037489586537049.00292126648128-1.481082107024122.145576446417181-2.699737108303452.754660508182496-3.673979480479829,1.62860606443428-1.951892888580915,1.626171675694422-3.228486341778989,4.281116031250349-3.228486341778989,7.288072998046118,0,.011198188187336.001460633244278.021909498625973.001460633244278.033107686811491,0,.010711310438637-.001460633244278.022883254119733-.001460633244278.033107686809672,0,.22152937498322.012658821429795.463994493095015.033594564558371.714249655164167.009250677196178.123180070046146.021909498627792.244412629101134.03602895329459.365645188157941.008763799452936.075952928566039.018501354397813.153366490372719.02969954258333.231753807673158.109060615375711.821849637297419.311114880467358,1.605722810314546.598859629069921,2.33798694212237.772674984827972,2.060466626211564,2.274692834987945,4.104379409016474,4.899937647967818,4.90091140345794.549198098855413.181118521963072,1.123713840566779.289692259591902,1.715270303433499.324260579644033.014606332415497.001460633242459.028238909339052.004868777474258.043332119503248.005842532968018.021909498624154.00097375549376.042845241756368-.00097375549376.064754740378703,0,.094454282958395.00340814422816.186961054932908.016066965659775.281415337891303.016066965659775.070110395598022,0,.138273280206704-.010711310442275.208383675804725-.012658821431614.187447932681607-.0024343887344.372461476619719-.014119454666798.55601438731901-.032133931314092.016066965656137-.002434388736219.03213393131773-.003895021978678.048687774722566-.006329410713079,1.025364535631525-.113929392849968,1.988408719620566-.472758292546132,2.852129843180592-1.027312046622683.012658821426157-.007790043957357.024343887362193-.017527598900415.036515831039651-.024830765107254.185013543943569-.120258803563047.36710582140222-.244899506848014.541408054899875-.382199031562777.139247035705921-.10759998213689.273138416190704-.224937519213199.405569163429391-.342761934040027.045279630492587-.041384608512089.093967405215153-.078387317300439.138273280210342-.121232559056807,1.776130021838981-1.641751763605498,2.918345216805392-4.172055415878276,2.918345216805392-7.01736897059709,0,.00146063324064,0,0,0,0Z"/>
    <path class="cls-2" d="M273.023051780923197,86.883296150304886v22.345254208392362h-6.919993421155596v-1.316030550720825c-2.547831251169555,1.653923707288413-5.092741235854191,1.89590194765151-6.331358224768337,1.89590194765151-6.128817081940724,0-11.115418968904123-4.986601886967037-11.115418968904123-11.115418968898666,0-6.128330204184749,4.986601886963399-11.115418968898666,11.115418968904123-11.113958335656207h6.331358224768337v-.695748300768173c0-1.059445977940413-.862747368060809-1.922193346003041-1.922193346003041-1.922193346003041h-4.409164878765296v-6.919993421155596h4.409164878765296c4.876080638354324,0,8.842186767158637,3.966106128807951,8.842186767158637,8.842186767158637ZM265.969166979282818,94.497577238984377h-6.197466844283554c-2.313643054763816,0-4.195425547748528,1.881782492982893-4.195425547748528,4.19542554774489s1.881782492984712,4.195912425489951,4.195425547748528,4.195912425489951c4.155988450213044,0,5.656545667132377-4.814734042198324,6.197466844283554-8.39133797323484Z"/>
    <path class="cls-2" d="M293.729475492196798,78.041596260894949v6.949692963733469h-9.109969528122747v24.859977772755883h-6.85718619176987v-31.809670736489352h15.967155719892617Z"/>
    <path class="cls-2" d="M312.754710342334874,91.690240148549492l12.412461287482074,18.162000604326749h-8.431748826258627l-9.039372254776026-13.370149816246339-4.365345881522444,4.126775785387508v9.243374030858831h-6.857673069511293v-41.580333367581261h6.857673069511293v23.781056684927535l15.083959486442836-14.118480913715757,8.667884533651886.106626226639492-14.3278383450197,13.649130765403243Z"/>
    <path class="cls-2" d="M361.468776462103051,78.041109383146249l-13.458761566243993,31.807723225500013h-7.461888353800532l-13.781561512651024-31.807723225500013h7.542710059844467l9.940582964873101,22.950443248182637,9.711263545934344-22.950443248182637h7.507654862043637Z"/>
    <path class="cls-2" d="M367.593698522056002,96.320447524554766c.830613436746717,4.037190279899733,4.082469910386862,7.035383447246204,7.969214966396976,7.035383447246204,2.906173273122477,0,5.466176467974947-1.684110127614986,6.907821477474499-4.23291513428012h7.185828671139461c-1.937779049598248,6.308961848400941-7.519826805726552,10.864190051337573-14.09365014861396,10.864190051337573-8.176624886711579,0-14.819584869695973-7.046581635431721-14.819584869695973-15.730533134743382,0-8.672753311126144,6.642959982984394-15.730533134741563,14.819584869695973-15.730533134741563,6.573823342887408,0,12.16707490288718,4.566426391120331,14.09365014861396,10.875388239521271.472758292546132,1.521979837789331.726421598843444,3.159836579419789.726421598843444,4.855144895220292,0,.703051466976831-.046253385984528,1.384193435327688-.138273280203066,2.063874770439725h-22.651013433651315ZM382.470734965927477,89.401427858894749c-1.429473065816637-2.548805006666953-3.989476260672745-4.244113322463818-6.907821477474499-4.244113322463818-2.917858339047598,0-5.477861533905525,1.695308315796865-6.908308355217741,4.244113322463818h13.816129832692241Z"/>
    <path class="cls-2" d="M423.232139962703513,93.932312174471008v15.864911392973227h-6.919993421155596v-15.864911392973227c0-4.93791411224629-3.610685373338129-8.956116160006786-8.048576039191175-8.956116160006786-4.437890665863961,0-8.048576039203908,4.018202047760496-8.048576039203908,8.956116160006786v15.919928578405234h-6.919993421153777v-15.918954822913292c0-8.754061894909682,6.714531011826693-15.875622703411864,14.968569460357685-15.875622703411864,8.25306469302086,0,14.968569460346771,7.121560808502181,14.968569460346771,15.874648947919923Z"/>
    <path class="cls-2" d="M438.940763598817284,102.972171306993914v6.919506543410535h-2.74939863851796c-4.918925880103416,0-8.919600328959859-4.000674448861901-8.919600328959859-8.919600328965316v-29.538872923481904h6.919993421153777v8.384034807026183h4.545977525744092v6.919993421155596h-4.545977525744092v14.234844695300126c0,1.102778097440023.89682881036606,2.000093785554782,1.999606907806083,2.000093785554782h2.74939863851796Z"/>
    <path class="cls-2" d="M472.058674842073742,78.097100324075654v15.918467945168231c0,8.754548772656563-6.715991645076429,15.876109581160563-14.969056338097289,15.876109581160563-8.253064693033593,0-14.968569460352228-7.121560808504-14.968569460352228-15.876109581160563v-15.864424515224528h6.919993421151958v15.864424515224528c0,4.93840098999317,3.610685373338129,8.956603037750028,8.04857603920027,8.956603037750028,4.437890665858504,0,8.048576039191175-4.018202047756859,8.048576039191175-8.956603037750028v-15.918467945168231h6.920480298906114Z"/>
    <path class="cls-2" d="M492.303051571238029,78.041596260894949v6.949692963733469h-9.110456405865989v24.859977772755883h-6.857186191768051v-31.809670736489352h15.96764259763404Z"/>
    <path class="cls-2" d="M500.115491903034126,96.320447524554766c.830613436750355,4.037190279899733,4.082956788139199,7.035383447246204,7.969214966400614,7.035383447246204,2.906660150867538,0,5.466663345723646-1.684110127614986,6.907821477478137-4.23291513428012h7.185341793379848c-1.936799678413081,6.308961848400941-7.519339927966939,10.864190051337573-14.093163270857985,10.864190051337573-8.176624886715217,0-14.819584869703249-7.046581635431721-14.819584869703249-15.730533134743382,0-8.672753311126144,6.642959982988032-15.730533134741563,14.819584869703249-15.730533134741563,6.573823342891046,0,12.167074902881723,4.566426391120331,14.093163270857985,10.875388239521271.473245170298469,1.521979837789331.72642159885072,3.159836579419789.72642159885072,4.855144895220292,0,.703051466976831-.045766508241286,1.384193435327688-.138273280210342,2.063874770439725h-22.650526555898978ZM514.992528346912877,89.401427858894749c-1.429473065823913-2.548805006666953-3.989476260672745-4.244113322463818-6.907821477478137-4.244113322463818-2.917371461304356,0-5.478348411652405,1.695308315796865-6.907821477474499,4.244113322463818h13.815642954952637Z"/>
    <path class="cls-2" d="M555.760749632141597,102.995541438860528h18.625021341929823v6.857186191764413h-27.901016181853265v-.576463252700705c0-8.150333488365504,6.494949147836451-13.053192402810964,12.226473988037469-17.379101186810658,4.733425458422062-3.574169542298478,9.205884444330877-6.949692963735288,9.205884444330877-11.529265054030475,0-3.801054572499197-2.931004038233368-6.069904874519125-7.840679241140606-6.069904874519125-4.399427323820419,0-7.521287438963554,1.917811446275664-9.27891610640836,5.703285930867423l-.277520315905349.594477729348-5.160904120471969-3.259646517599322.165538434053815-.440624361228402c2.193871128944011-5.832308533877949,7.719933559823403-9.177645534988187,15.15942553725472-9.177645534988187,8.759904427881338,0,14.421318872489792,4.661367551831063,14.421318872489792,11.872513865819201,0,7.402976146391666-6.296303026972964,12.262989819082577-11.851578122692445,16.550922138798342-2.975796790971799,2.298549844595982-5.804556502283958,4.481709663104994-7.493048529624502,6.854264925279494Z"/>
    <path class="cls-2" d="M586.942348074722759,105.913886655662282c0,2.195818639936988-1.786841332272161,3.981199338970328-3.980712461219809,3.981199338970328-2.195818639936988,0-3.982659972209149-1.7863544545271-3.982659972209149-3.981199338970328,0-2.194844884441409,1.786841332272161-3.981199338968509,3.982659972209149-3.981199338968509,2.193871128947649,0,3.980712461219809,1.78538069903334,3.980712461219809,3.981199338968509Z"/>
    <path class="cls-2" d="M622.918718571871068,89.061587191337821c0,12.966041286061227-6.270985384111555,21.343746682377969-15.973485130600238,21.343746682377969-9.735607433291079,0-16.027041682793424-8.378679151810502-16.027041682793424-21.343746682377969,0-12.965554408312528,6.291434249502345-21.343746682374331,16.027041682793424-21.343746682374331,9.702499746488684,0,15.973485130600238,8.376731640822982,15.973485130600238,21.343746682374331ZM615.618473630145672,89.062560946833401c0-9.592465375613756-3.243579551939547-15.317660805105334-8.673240188874843-15.317660805105334-5.46374207923327,0-8.726796741064391,5.726656062732218-8.726796741064391,15.317660805105334,0,9.590517864624417,3.26305466183112,15.316687049609754,8.726796741064391,15.316687049609754,5.429660636935296,0,8.673240188874843-5.724708551744698,8.673240188874843-15.316687049609754Z"/>
  </g>
  <path class="cls-1" d="M159.468442080704335,72.109010182894053c-4.971919582241753-5.769894072100215-10.678824256980079-8.226480569113846-10.919358898710925-8.328307988676897l-.055482888868937-.022682710450681c-19.821425232248657-7.832715243135681-35.802292260217655,6.216531327472694-41.753648015903309,12.620072627414629-2.949568283082044,3.173458058150572-6.094958526869959,6.38249043916403-9.61551101036639,9.810517046231325l-7.392768571424313,7.198088905493933,11.576831131769723,12.6804510652928c-7.0265815049097,7.213265107448024-13.002578190649729,10.714072209910228-16.882627157006937,12.39504055757061-4.46669892362479,1.935047341678001-7.166757391780266,1.928030388085972-7.167410131647557,1.928356758022346l-.124183760080996-.00407962418285-.124183760075539.008322433328431c-6.150930970638001.413347522051481-11.738057879418193-.854436488531064-16.599664423793001-3.765493119342864-6.055141394856037-3.625643602406853-10.495730723721863-9.850170993271604-12.183226470078807-17.077796377840059-.719972075514306-3.084032696096983-.98775860677415-6.13657069351575-.795526715355663-9.072431439350112.554502518725712-8.468973430450205,5.467838697721163-16.102113458640815,13.143080447456668-20.418682212392014,10.580423721728948-5.950131868430617,19.177497351471175-3.275203885235896,23.321416409873564-1.185538787085534-.146948063007585.537225310312351-.23204902343241,1.100070660486381-.23204902343241,1.683926075194904,0,3.521980351963066,2.855084187043758,6.377105335246597,6.377105335248416,6.377105335246597,3.522021148202839,0,6.377105335246597-2.855124983283531,6.377105335246597-6.377105335246597,0-3.522000750082952-2.855084187043758-6.377125733370121-6.377105335246597-6.377125733370121-1.06804561066383,0-2.072775454036673.265828311656151-2.957074791574996.729885562277559-1.571960789542572-.865614658789127-3.803515216712185-1.885255528541165-6.563788937784921-2.594926552999823-5.135430919428472-1.320329570038666-13.190404087958086-1.806620772449605-22.402848229210576,3.37433875284114-9.157777177224489,5.15028075144437-15.022481715299364,14.294513576383906-15.688113196716586,24.460610666259527-.224542514944915,3.428679346934587.083713888194325,6.974688685324509.915957221179269,10.539627479914998,1.99460985472615,8.542896220616967,7.275928134875358,15.919672665249891,14.489682797224305,20.239015563447538,5.055143915533336,3.02675477259254,10.73479670074812,4.554329251041054,16.916243260258852,4.554329251041054.825389564359284,0,1.660733411721594-.027415074497185,2.503746952552319-.081918853560637,1.580283222865546-.007832878429326,13.669025596904248-.649802539599477,29.318463956389678-17.60341515735854l1.560701026795869-1.690759445698859-11.427353701767061-12.516613358175164,3.91464417941279-3.811511280109698c3.581094106348246-3.486773195276328,6.78343590370423-6.754225794566082,9.790445295258905-9.989367770340323,5.246559882129077-5.645057572151927,19.271002337713071-18.047278268284572,36.199484470516836-11.386394274984923.365044771740941.162695412349422,5.12890352073191,2.346599829086699,9.187150471329005,7.12628751990087,5.518262852599946,6.499167690748436,7.233826413321367,14.604891384098664,5.099203856692839,24.092139010206665-.792263016010111,3.520878853430986-2.279041252642855,6.727463459938008-4.418885728222449,9.530981197329311-.332570963262697.435540677593963-.676564874225733.868470395715121-1.022680189767925,1.286713466781293-6.528704169824778,7.890319536576499-16.603744047968576,11.464886244233639-26.292525108634436,9.330426872578755-.984494907430417-.216954413965141-1.928846312919632-.492533027412719-2.83974480012148-.81435418095316.141807736539704-.648619448584213.218667856119282-1.321512661050292.218667856119282-2.012682589846008,0-5.181734653880994-4.200625834522725-9.382360488405538-9.382319692163946-9.382360488405538-5.181775450124405,0-9.382401284647131,4.200625834524544-9.382401284647131,9.382360488405538,0,5.181734653884632,4.200625834522725,9.382360488405538,9.382401284647131,9.382360488405538,2.666768734836296,0,5.071870374680657-1.11449213197011,6.78000901939231-2.900898366598994,1.319840015135924.507260470703841,2.701690317826433.923137359743123,4.144734983239687,1.241123666555723,11.531955265769284,2.540953125084343,23.500593503913478-1.685047971845052,31.233276362123434-11.029835121542419.387727482193441-.468667225946774.773170374843176-.953489763653124,1.145395285144332-1.441249630768652,2.5814229969601-3.381682076364086,4.372867567455614-7.241496106780687,5.324725481437781-11.472066382795674,3.138046920259512-13.946603226202569-1.704793352884735-23.258590197479862-6.319990596706702-28.614484007664942Z"/>
</svg>